<svg id="Layer_1" data-name="Layer 1" xmlns="http://www.w3.org/2000/svg" viewBox="0 0 1080 1080"><defs><style>.cls-1,.cls-2{fill:#323d46;}.cls-2{stroke:#fff;stroke-miterlimit:10;stroke-width:10px;}.cls-3{fill:#b1dd01;}</style></defs><title>WG </title><circle class="cls-1" cx="533.89" cy="539.63" r="493"/><circle class="cls-2" cx="533.89" cy="539.63" r="424.5"/><path class="cls-3" d="M624.06,311.35c-55.62,44.64-48,102-37.39,134.1a3.09,3.09,0,0,0,5.65.49c12-21.77,26.86-46.85,42.41-68.84,37.27-52.71,86.19-70.9,86.19-70.9S652.43,332,602.86,462.62a3,3,0,0,0-.14.88h0v.17c0,.1,0,.2,0,.3V710.73c0,59.49-46.17,110.22-105.61,112.47A110,110,0,0,1,383,713.43V595h12.24a47.3,47.3,0,0,0,47.3-47.3V489.08H292.61v58.63a47.3,47.3,0,0,0,47.3,47.3h12.24V710.44c0,76.56,59.91,141.35,136.44,143.62,79.51,2.36,145-61.64,145-140.63V484.29a8.78,8.78,0,0,1,9.2-8.69c46.78,1.46,71-39.44,88.11-91.67C755.49,308.87,789,298.77,789,298.77S686.9,260.89,624.06,311.35ZM320.22,504.22h94.7a4.14,4.14,0,1,1,0,8.28h-94.7a4.14,4.14,0,1,1,0-8.28Zm0,18.78h94.7a4.14,4.14,0,1,1,0,8.28h-94.7a4.14,4.14,0,1,1,0-8.28Zm0,18.78h94.7a4.14,4.14,0,1,1,0,8.28h-94.7a4.14,4.14,0,1,1,0-8.28Zm0,27.06a4.14,4.14,0,1,1,0-8.28h94.7a4.14,4.14,0,1,1,0,8.28Z"/><path class="cls-3" d="M334.77,380a10.47,10.47,0,1,0-20.94,0v88.63h20.94Z"/><path class="cls-3" d="M421.31,380a10.47,10.47,0,1,0-20.94,0v88.63h20.94Z"/><path class="cls-3" d="M456.39,478.23a6.28,6.28,0,0,0-6.28-6.28H285a6.28,6.28,0,0,0,0,12.57H450.11A6.28,6.28,0,0,0,456.39,478.23Z"/></svg>