<svg id="Layer_1" data-name="Layer 1" xmlns="http://www.w3.org/2000/svg" viewBox="0 0 1080 1080"><defs><style>.cls-1,.cls-2{fill:#323d46;}.cls-2{stroke:#fff;stroke-miterlimit:10;stroke-width:10px;}.cls-3{fill:#b1dd01;}.cls-4{fill:#fff;}</style></defs><title>WG </title><circle class="cls-1" cx="535.25" cy="537.75" r="493"/><circle class="cls-2" cx="535.25" cy="537.75" r="424.5"/><path class="cls-3" d="M759.51,301h-449a39.44,39.44,0,0,0-39.39,39.39V612.51A39.43,39.43,0,0,0,310.5,651.9H469.63v56.61H400.27A19.3,19.3,0,0,0,381,727.82v27.87A19.3,19.3,0,0,0,400.27,775H669.73A19.3,19.3,0,0,0,689,755.69V727.82a19.31,19.31,0,0,0-19.31-19.31H600.4V651.9H759.51a39.43,39.43,0,0,0,39.38-39.39V340.39A39.43,39.43,0,0,0,759.51,301Zm-.78,310.74-447.47.77-.76-271.34,448.23-.78Zm0,0"/><rect class="cls-4" x="311" y="341" width="448" height="271"/></svg>