<svg id="Layer_1" data-name="Layer 1" xmlns="http://www.w3.org/2000/svg" viewBox="0 0 1080 1080"><defs><style>.cls-1,.cls-2,.cls-5{fill:#323d46;}.cls-2{stroke:#fff;}.cls-2,.cls-5{stroke-miterlimit:10;stroke-width:10px;}.cls-3{fill:#666;}.cls-3,.cls-4,.cls-5,.cls-6{fill-rule:evenodd;}.cls-4{fill:#fff;}.cls-5{stroke:#b3b3b3;}.cls-6{fill:#f2f2f2;}.cls-7{fill:#b1dd01;}</style></defs><title>WG </title><circle class="cls-1" cx="540.1" cy="546.88" r="493"/><circle class="cls-2" cx="540.1" cy="546.88" r="424.5"/><path class="cls-3" d="M364,259.88H716.2a32.63,32.63,0,0,1,32.63,32.61V801.25a32.63,32.63,0,0,1-32.63,32.62H364a32.62,32.62,0,0,1-32.61-32.62V292.49A32.62,32.62,0,0,1,364,259.88Z"/><path class="cls-4" d="M514.81,288.9a3.59,3.59,0,1,1-3.59,3.59A3.59,3.59,0,0,1,514.81,288.9Z"/><path class="cls-4" d="M532.75,288.9h35.88a3.59,3.59,0,1,1,0,7.18H532.75a3.59,3.59,0,0,1,0-7.18Z"/><path class="cls-5" d="M540.09,789.57a14.87,14.87,0,1,1-14.87,14.86A14.87,14.87,0,0,1,540.09,789.57Z"/><path class="cls-6" d="M351.64,307.57H728.56V764.16H351.64Z"/><path class="cls-4" d="M351.64,764.16V307.57H728.56"/><path class="cls-7" d="M492.82,444.13c-20.9,0-40.35,13.34-49.58,34-9.52,21.33-5.26,45.18,11.39,63.73A1181.93,1181.93,0,0,0,537.84,626a3.67,3.67,0,0,0,4.81,0c4.1-3.68,41-37.12,83.22-84.13,16.65-18.56,20.92-42.42,11.38-63.74-9.21-20.67-28.66-34-49.57-34-22.77,0-35.82,10.56-42.78,19.41l-4.64,5.92-4.64-5.92C528.65,454.68,515.62,444.13,492.82,444.13Z"/></svg>